<?xml version="1.0" encoding="UTF-8" standalone="no"?>
<!-- Created with Inkscape (http://www.inkscape.org/) -->

<svg
   width="18.915651"
   height="18.915649"
   viewBox="0 0 18.91565 18.915649"
   version="1.1"
   id="svg1"
   xml:space="preserve"
   xmlns="http://www.w3.org/2000/svg"
   xmlns:svg="http://www.w3.org/2000/svg"><defs
     id="defs1" /><g
     id="layer1"
     transform="translate(-1757.6512,-934.4187)"><g
       id="g22"
       transform="matrix(0.03813639,0,0,0.03813639,1757.3462,934.1136)"
       style="fill:#ffffff;stroke:none"><path
         d="M 256,8 C 119.033,8 8,119.033 8,256 8,392.967 119.033,504 256,504 392.967,504 504,392.967 504,256 504,119.033 392.967,8 256,8 Z m 0,48 c 110.532,0 200,89.451 200,200 0,110.532 -89.451,200 -200,200 C 145.468,456 56,366.549 56,256 56,145.468 145.451,56 256,56"
         id="path19" /><g
         id="rect20"
         style="opacity:1"
         transform="rotate(90)"><path
           id="path29"
           style="baseline-shift:baseline;display:inline;overflow:visible;vector-effect:none;enable-background:accumulate;stop-color:#000000;stop-opacity:1"
           d="m 125.40819,-255.99294 c 0,16.94141 13.94077,30.88217 30.88217,30.88217 h 68.8319 v 68.78068 c 0,16.9414 13.94075,30.93338 30.88216,30.93338 16.94141,0 30.88217,-13.99198 30.88217,-30.93338 v -68.78068 h 68.78068 c 16.9414,0 30.93338,-13.94076 30.93338,-30.88217 0,-16.94141 -13.99198,-30.93338 -30.93338,-30.93338 H 286.88659 V -355.707 c 0,-16.9414 -13.94076,-30.88217 -30.88217,-30.88217 -16.94141,0 -30.88216,13.94077 -30.88216,30.88217 v 68.78068 h -68.8319 c -16.9414,0 -30.88217,13.99197 -30.88217,30.93338 z" /></g><g
         id="rect22"
         style="opacity:1"
         transform="scale(-1)" /></g></g></svg>
