<?xml version="1.0" encoding="UTF-8" standalone="no"?>
<!-- Created with Inkscape (http://www.inkscape.org/) -->

<svg
   width="29.702087"
   height="13.349171"
   viewBox="0 0 29.702087 13.349171"
   version="1.1"
   id="svg1"
   xml:space="preserve"
   xmlns="http://www.w3.org/2000/svg"
   xmlns:svg="http://www.w3.org/2000/svg"><defs
     id="defs1" /><g
     id="layer1"
     transform="translate(557.93479,-25.356338)"><path
       style="fill:#ffffff;fill-rule:nonzero;stroke:none;stroke-width:1px;stroke-linecap:butt;stroke-linejoin:miter;stroke-opacity:1"
       d="m -557.9348,38.705509 c 0.13121,-0.239865 0.39805,-0.755959 0.78724,-1.439192 0.43447,-0.762719 1.2389,-1.993668 2.13519,-3.411262 3.05105,0.475601 6.414,0.95513 9.24098,1.176859 a 1.1528492,1.1599727 19.848848 0 0 1.03658,-0.490602 c 1.4919,-2.127991 3.2457,-4.960068 4.84536,-7.631508 4.44821,1.091867 8.39353,2.004492 10.02116,2.419889 0.85958,0.219378 1.36297,0.347187 1.63556,0.416624 -0.26489,-0.09466 -0.75382,-0.269817 -1.58935,-0.567973 -1.64769,-0.587974 -5.68178,-2.132731 -10.20122,-3.787172 a 0.65726044,0.79331693 31.32037 0 0 -0.80314,0.277138 c -1.88724,2.324727 -3.89901,4.870887 -5.42583,7.011676 -2.80654,-0.180929 -6.08014,-0.210256 -9.03282,-0.203738 a 0.72172743,0.53646895 6.3316732 0 0 -0.65074,0.380142 c -0.58122,1.798443 -1.065,3.414586 -1.40161,4.321315 -0.27366,0.73715 -0.4978,1.27317 -0.59736,1.527804 z"
       id="path81" /></g></svg>
