<?xml version="1.0" encoding="UTF-8" standalone="no"?>
<!-- Created with Inkscape (http://www.inkscape.org/) -->

<svg
   width="5.0047641mm"
   height="5.0047641mm"
   viewBox="0 0 5.0047641 5.0047641"
   version="1.1"
   fill="currentcolor"
   id="svg1"
   xmlns="http://www.w3.org/2000/svg"
   xmlns:svg="http://www.w3.org/2000/svg">
  <defs
     id="defs1">
    <filter
       style="color-interpolation-filters:sRGB"
       id="filter44"
       x="0"
       y="0"
       width="1"
       height="1">
      <feComposite
         result="comp2"
         operator="over"
         in="SourceGraphic"
         in2="comp1"
         id="feComposite44" />
    </filter>
  </defs>
  <g
     id="layer1"
     transform="translate(-104.59315,-131.58066)">
    <g
       id="use1-49"
       style="fill:#f9f9f9;stroke:none;filter:url(#filter44)"
       transform="matrix(0.01009025,0,0,0.01009025,104.51243,131.49994)">
      <title
         id="title3">Check Circle</title>
      <path
         d="M 504,256 C 504,392.967 392.967,504 256,504 119.033,504 8,392.967 8,256 8,119.033 119.033,8 256,8 392.967,8 504,119.033 504,256 Z m -276.686,131.314 184,-184 c 6.248,-6.248 6.248,-16.379 0,-22.627 L 388.687,158.06 c -6.248,-6.249 -16.379,-6.249 -22.628,0 L 216,308.118 145.941,238.059 c -6.248,-6.248 -16.379,-6.248 -22.628,0 l -22.627,22.627 c -6.248,6.248 -6.248,16.379 0,22.627 l 104,104 c 6.249,6.249 16.379,6.249 22.628,0.001 z"
         id="path3" />
    </g>
  </g>
</svg>
