<?xml version="1.0" encoding="UTF-8" standalone="no"?>
<!-- Created with Inkscape (http://www.inkscape.org/) -->

<svg
   width="5.0047655mm"
   height="5.0047655mm"
   viewBox="-0.2 -0.2 5.2047655 5.2047655"
   version="1.1"
   id="svg1"
   fill="currentcolor"
   xmlns="http://www.w3.org/2000/svg"
   xmlns:svg="http://www.w3.org/2000/svg">
  <defs
     id="defs1" />
  <g
     id="layer1"
     transform="translate(-35.660485,-85.747415)">
    <g
       id="use1-4"
       style="fill:#fff;stroke:none"
       transform="matrix(0.01009025,0,0,0.01009025,35.579763,85.666696)">
      <title
         id="title1">Check Circle</title>
      <path
         d="M 256,8 C 119.033,8 8,119.033 8,256 8,392.967 119.033,504 256,504 392.967,504 504,392.967 504,256 504,119.033 392.967,8 256,8 Z m 0,48 c 110.532,0 200,89.451 200,200 0,110.532 -89.451,200 -200,200 C 145.468,456 56,366.549 56,256 56,145.468 145.451,56 256,56 m 140.204,130.267 -22.536,-22.718 c -4.667,-4.705 -12.265,-4.736 -16.97,-0.068 L 215.346,303.697 155.554,243.42 c -4.667,-4.705 -12.265,-4.736 -16.97,-0.069 l -22.719,22.536 c -4.705,4.667 -4.736,12.265 -0.068,16.971 l 90.781,91.516 c 4.667,4.705 12.265,4.736 16.97,0.068 L 396.137,203.238 c 4.704,-4.668 4.734,-12.266 0.067,-16.971 z"
         id="path1" />
    </g>
  </g>
</svg>
