<?xml version="1.0" encoding="UTF-8" standalone="no"?>
<!-- Created with Inkscape (http://www.inkscape.org/) -->

<svg
   width="5.8947868mm"
   height="4.2333174mm"
   viewBox="0 0 5.8947868 4.2333174"
   version="1.1"
   preserveAspectRatio="none" 
   id="svg1"
   fill="currentcolor"
   xmlns="http://www.w3.org/2000/svg"
   xmlns:svg="http://www.w3.org/2000/svg">
  <defs
     id="defs1" />
  <g
     id="layer1"
     transform="translate(-100.36283,-96.919549)">
    <g
       id="g48"
       transform="matrix(0.13292577,0,0,0.13292577,-1.3397133,-139.39882)">
      <g
         id="use1-38"
         style="fill:currentcolor;stroke:none"
         transform="matrix(0.05812229,0,0,0.05812229,765.10774,1781.7706)">
        <title
           id="title4">Cloud Upload-alt</title>
        <path
           d="m 640,352 c 0,70.692 -57.308,128 -128,128 H 144 C 64.471,480 0,415.529 0,336 0,273.227 40.171,219.845 96.204,200.133 A 163.68,163.68 0 0 1 96,192 C 96,103.634 167.634,32 256,32 315.288,32 367.042,64.248 394.684,112.159 409.935,101.954 428.271,96 448,96 c 53.019,0 96,42.981 96,96 0,12.184 -2.275,23.836 -6.415,34.56 C 596.017,238.414 640,290.07 640,352 Z M 404.686,260.686 299.314,155.314 c -6.248,-6.248 -16.379,-6.248 -22.627,0 L 171.314,260.686 C 161.234,270.766 168.373,288 182.627,288 H 248 v 112 c 0,8.837 7.164,16 16,16 h 48 c 8.836,0 16,-7.163 16,-16 V 288 h 65.373 c 14.254,0 21.393,-17.234 11.313,-27.314 z"
           id="path4" />
      </g>
      <g
         id="use1-1"
         style="fill:#f9f9f9;stroke:#1a1a1a;stroke-width:260.191;stroke-dasharray:none;stroke-opacity:1;paint-order:markers stroke fill"
         transform="matrix(0.02906763,0,0,0.02906763,792.58413,1788.9652)">
        <title
           id="title1">Apple</title>
        <path
           d="m 247.2,137.6 c -6.2,1.9 -15.3,3.5 -27.9,4.6 1.1,-56.7 29.9,-96.6 88,-110.1 9.3,41.6 -26.1,94.1 -60.1,105.5 z m 121.3,72.7 c 6.4,-9.4 16.6,-19.9 30.6,-31.7 C 376.8,151 351,134.3 314,134.3 c -35.4,0 -65.2,18.2 -87,18.2 -18.5,0 -51.9,-16.1 -84.5,-16.1 -69.6,0 -106.5,68.1 -106.5,139 0,78.8 59.7,204.6 120.2,204.6 23.8,0 45.2,-18 73.5,-18 29.3,0 52.8,17.2 80.3,17.2 46,0 88.6,-77.5 102,-119.7 -46.8,-14.3 -84.4,-90.2 -43.5,-149.2 z"
           id="path1" />
      </g>
      <g
         id="use1-8"
         style="fill:#f9f9f9;stroke:#1a1a1a;stroke-width:260.191;stroke-dasharray:none;stroke-opacity:1;paint-order:markers stroke fill"
         transform="matrix(0.02624877,0,0,0.02624877,787.12172,1781.0269)">
        <title
           id="title3">Google Logo</title>
        <path
           d="M 488,261.8 C 488,403.3 391.1,504 248,504 110.8,504 0,393.2 0,256 0,118.8 110.8,8 248,8 314.8,8 371,32.5 414.3,72.9 l -67.5,64.9 C 258.5,52.6 94.3,116.6 94.3,256 c 0,86.5 69.1,156.6 153.7,156.6 98.2,0 135,-70.4 140.8,-106.9 H 248 v -85.3 h 236.1 c 2.3,12.7 3.9,24.9 3.9,41.4 z"
           id="path3" />
      </g>
    </g>
  </g>
</svg>
