<?xml version="1.0" encoding="UTF-8" standalone="no"?>
<!-- Created with Inkscape (http://www.inkscape.org/) -->

<svg
   width="6.0475636mm"
   height="4.2332931mm"
   viewBox="0 0 6.0475636 4.2332931"
   version="1.1"
   id="svg1"
   xmlns="http://www.w3.org/2000/svg"
   xmlns:svg="http://www.w3.org/2000/svg">
  <defs
     id="defs1" />
  <g
     id="layer1"
     transform="translate(-119.57325,-124.17163)">
    <g
       id="use1-3"
       style="fill:currentcolor;stroke:none"
       transform="matrix(0.00944931,0,0,0.00944931,119.57326,123.86926)">
      <title
         id="title1">Cloud Download-alt</title>
      <path
         d="m 640,352 c 0,70.692 -57.308,128 -128,128 H 144 C 64.471,480 0,415.529 0,336 0,273.227 40.171,219.845 96.204,200.133 A 163.68,163.68 0 0 1 96,192 C 96,103.634 167.634,32 256,32 315.288,32 367.042,64.248 394.684,112.159 409.935,101.954 428.271,96 448,96 c 53.019,0 96,42.981 96,96 0,12.184 -2.275,23.836 -6.415,34.56 C 596.017,238.414 640,290.07 640,352 Z M 393.373,288 H 328 V 176 c 0,-8.837 -7.164,-16 -16,-16 h -48 c -8.836,0 -16,7.163 -16,16 v 112 h -65.373 c -14.254,0 -21.393,17.234 -11.314,27.314 l 105.373,105.373 c 6.248,6.248 16.379,6.248 22.627,0 L 404.686,315.314 C 414.766,305.234 407.627,288 393.373,288 Z"
         id="path1" />
    </g>
  </g>
</svg>
