<?xml version="1.0" encoding="UTF-8" standalone="no"?>
<!-- Created with Inkscape (http://www.inkscape.org/) -->

<svg
   width="6.6517177mm"
   height="6.65171mm"
   viewBox="0 0 6.6517177 6.65171"
   version="1.1"
   id="svg1"
   xmlns="http://www.w3.org/2000/svg"
   xmlns:svg="http://www.w3.org/2000/svg">
  <defs
     id="defs1" />
  <g
     id="layer1"
     transform="translate(-101.6,-139.96459)">
    <g
       id="g3"
       transform="matrix(0.26458333,0,0,0.26458333,-149.16657,134.5854)">
      <path
         d="m 965.8768,32.018256 0.40396,-0.40396 -1.21188,-1.21188 -2.21999,-2.21999 -1.21188,-1.21188 -0.40396,0.40395 -0.80792,0.80793 -7.12113,7.12113 c -0.37179,0.37178 -0.64347,0.83294 -0.79362,1.337 l -1.26551,4.30412 c -0.0894,0.3003 -0.007,0.62562 0.21807,0.84726 0.22522,0.22164 0.54696,0.30386 0.84725,0.21806 l 4.30056,-1.26549 c 0.50406,-0.15015 0.96521,-0.42184 1.337,-0.79364 l 7.12113,-7.12112 z m -8.94789,6.02007 -0.32531,0.8115 c -0.14299,0.11081 -0.30386,0.19304 -0.47546,0.24666 l -2.79554,0.82221 0.82222,-2.79197 c 0.0501,-0.17516 0.13584,-0.33603 0.24666,-0.47546 l 0.8115,-0.32531 v 1.14397 c 0,0.31458 0.25738,0.57198 0.57197,0.57198 h 1.14396 z m 7.24625,-13.60951 -0.51478,0.51835 -0.80792,0.80792 -0.40753,0.40395 1.21188,1.21188 2.21999,2.22001 1.21188,1.21187 0.40396,-0.40396 0.80792,-0.80791 0.51836,-0.51837 c 0.89371,-0.89371 0.89371,-2.34154 0,-3.23525 l -1.40493,-1.40849 c -0.89372,-0.89372 -2.34153,-0.89372 -3.23525,0 z m -1.69448,6.00577 -5.14781,5.14781 c -0.22164,0.22163 -0.58628,0.22163 -0.80792,0 -0.22164,-0.22165 -0.22164,-0.58628 0,-0.80793 l 5.14781,-5.1478 c 0.22164,-0.22164 0.58628,-0.22164 0.80792,0 0.22164,0.22165 0.22164,0.58627 0,0.80792 z"
         id="path1-6"
         style="fill:currentColor;stroke-width:0.0357487" />
      <rect
         style="fill:none;fill-rule:evenodd;stroke:none;stroke-width:0.859641;stroke-opacity:1"
         id="rect2"
         width="25.140358"
         height="25.140358"
         x="947.77917"
         y="20.330759"
         ry="0" />
    </g>
  </g>
</svg>
