<?xml version="1.0" encoding="UTF-8" standalone="no"?>
<!-- Created with Inkscape (http://www.inkscape.org/) -->

<svg
   width="23.984379"
   height="23.984379"
   viewBox="0 0 23.984379 23.984379"
   version="1.1"
   id="svg1"
   xml:space="preserve"
   xmlns="http://www.w3.org/2000/svg"
   xmlns:svg="http://www.w3.org/2000/svg"><defs
     id="defs1" /><path
     d="m 9.0878311,18.4255 c 0,0.843201 -0.7651267,1.030579 -1.4521792,1.030579 -0.6714377,0 -1.6707868,-0.109304 -1.6707868,-0.983735 0,-0.858815 0.8432008,-0.999349 1.5302533,-0.999349 0.6558229,0 1.5927127,0.109304 1.5927127,0.952505 z M 8.5256972,11.148989 c 0,0.780742 -0.3122966,1.327261 -1.1554974,1.327261 -0.8588157,0 -1.2023419,-0.499675 -1.2023419,-1.311646 0,-0.811971 0.3122966,-1.4053352 1.2023419,-1.4053352 0.7963563,0 1.1554974,0.6558232 1.1554974,1.3897202 z M 11.117759,9.9778764 V 8.0260226 C 10.446322,8.2758599 9.7280391,8.4788527 9.0097569,8.4788527 8.4944675,8.1821709 7.901104,8.0260226 7.2921256,8.0260226 c -1.7800906,0 -3.1854253,1.3116458 -3.1854253,3.1229664 0,0.968119 0.640208,2.310995 1.6083275,2.638906 v 0.04684 c -0.4996746,0.218607 -0.5933635,0.827586 -0.5933635,1.32726 0,0.51529 0.1873779,0.93689 0.640208,1.202342 v 0.04685 c -1.0618085,0.343526 -1.7644758,1.014964 -1.7644758,2.170461 0,1.983084 1.8893944,2.545217 3.5445664,2.545217 1.9986982,0 3.4977221,-0.733897 3.4977221,-2.935588 0,-1.561483 -1.4209497,-2.029928 -2.7169806,-2.26415 -0.4372152,-0.07807 -1.1867271,-0.390371 -1.1867271,-0.93689 0,-0.515289 0.281067,-0.733897 0.7651267,-0.811971 1.5927127,-0.312297 2.607677,-1.545868 2.607677,-3.185425 0,-0.281067 -0.06246,-0.546519 -0.156148,-0.811971 0.249837,-0.06246 0.515289,-0.124919 0.765126,-0.2029936 z m 0.921275,6.5426146 h 2.139232 c -0.03123,-0.421601 -0.03123,-0.858816 -0.03123,-1.280417 V 9.1971349 c 0,-0.3591411 0,-0.7182822 0.03123,-1.0774233 h -2.139232 c 0.04684,0.3591411 0.04684,0.7495119 0.04684,1.1086529 v 6.1210135 c 0,0.390371 0,0.780742 -0.04684,1.171113 z m 7.947949,-0.249838 v -1.889394 c -0.312297,0.218607 -0.687053,0.327911 -1.061809,0.327911 -0.702667,0 -0.827586,-0.702667 -0.827586,-1.280416 V 9.9154171 h 0.811972 c 0.281066,0 0.546519,0.03123 0.827586,0.03123 V 8.1197116 h -1.639558 c 0,-0.5309042 -0.03123,-1.0618084 0.04684,-1.5927126 h -2.186076 c 0.04684,0.2810669 0.06246,0.5621338 0.06246,0.8588156 v 0.733897 h -0.93689 v 1.8269351 c 0.187378,-0.015615 0.374756,-0.046844 0.577749,-0.046844 0.109304,0 0.234222,0.015615 0.359141,0.015615 v 0.03123 h -0.03123 v 3.3884183 c 0,1.686402 0.249838,3.310344 2.310995,3.310344 0.577749,0 1.171112,-0.09369 1.686402,-0.374756 z M 14.428103,5.2465829 c 0,-0.733897 -0.546519,-1.4209495 -1.311645,-1.4209495 -0.765127,0 -1.327261,0.6714377 -1.327261,1.4209495 0,0.733897 0.577749,1.3897199 1.327261,1.3897199 0.749511,0 1.311645,-0.6714377 1.311645,-1.3897199 z M 23.984379,4.4970711 V 19.487308 c 0,2.482758 -2.014313,4.497071 -4.497071,4.497071 H 4.4970711 C 2.0143131,23.984379 0,21.970066 0,19.487308 V 4.4970711 C 0,2.0143131 2.0143131,0 4.4970711,0 H 19.487308 c 2.482758,0 4.497071,2.0143131 4.497071,4.4970711 z"
     id="path1"
     style="fill:#ffffff;fill-opacity:1;stroke:none;stroke-width:0.0156148" /></svg>
