<?xml version="1.0" encoding="UTF-8" standalone="no"?>
<!-- Created with Inkscape (http://www.inkscape.org/) -->

<svg
   width="24"
   height="23.999994"
   viewBox="0 0 24 23.999994"
   version="1.1"
   id="svg1"
   xml:space="preserve"
   xmlns:xlink="http://www.w3.org/1999/xlink"
   xmlns="http://www.w3.org/2000/svg"
   xmlns:svg="http://www.w3.org/2000/svg"><defs
     id="defs1"><linearGradient
       id="linearGradient70"><stop
         style="stop-color:#ffa021;stop-opacity:1;"
         offset="0.13681495"
         id="stop70" /><stop
         style="stop-color:#9d6e2f;stop-opacity:1;"
         offset="0.13681495"
         id="stop72" /><stop
         style="stop-color:#333333;stop-opacity:1;"
         offset="1"
         id="stop71" /></linearGradient><linearGradient
       id="linearGradient67"><stop
         style="stop-color:#8693c0;stop-opacity:1;"
         offset="0"
         id="stop67" /><stop
         style="stop-color:#202020;stop-opacity:1;"
         offset="1"
         id="stop68" /></linearGradient><radialGradient
       xlink:href="#linearGradient67"
       id="radialGradient68"
       cx="-426.61615"
       cy="320"
       fx="-426.61615"
       fy="320"
       r="180"
       gradientTransform="matrix(2.1910744,0.01407889,-0.01142299,1.7777411,511.78694,-242.87086)"
       gradientUnits="userSpaceOnUse"
       spreadMethod="pad" /><radialGradient
       xlink:href="#linearGradient70"
       id="radialGradient71"
       cx="-506.42578"
       cy="138.67097"
       fx="-506.42578"
       fy="138.67097"
       r="209.05853"
       gradientTransform="matrix(1.2427603,0,2.2664111e-8,1.2186341,122.94005,-40.921975)"
       gradientUnits="userSpaceOnUse" /><symbol
       id="fork-awesome-symbols.svg:git-square"
       viewBox="0 0 10000 10000"><title
         id="title303">git-square</title><path
         d="m 582,1308 c 0,54 -49,66 -93,66 -43,0 -107,-7 -107,-63 0,-55 54,-64 98,-64 42,0 102,7 102,61 z M 546,842 c 0,50 -20,85 -74,85 -55,0 -77,-32 -77,-84 0,-52 20,-90 77,-90 51,0 74,42 74,89 z M 712,767 V 642 c -43,16 -89,29 -135,29 -33,-19 -71,-29 -110,-29 -114,0 -204,84 -204,200 0,62 41,148 103,169 v 3 c -32,14 -38,53 -38,85 0,33 12,60 41,77 v 3 c -68,22 -113,65 -113,139 0,127 121,163 227,163 128,0 224,-47 224,-188 0,-100 -91,-130 -174,-145 -28,-5 -76,-25 -76,-60 0,-33 18,-47 49,-52 102,-20 167,-99 167,-204 0,-18 -4,-35 -10,-52 16,-4 33,-8 49,-13 z m 59,419 h 137 c -2,-27 -2,-55 -2,-82 V 717 c 0,-23 0,-46 2,-69 H 771 c 3,23 3,48 3,71 v 392 c 0,25 0,50 -3,75 z m 509,-16 v -121 c -20,14 -44,21 -68,21 -45,0 -53,-45 -53,-82 V 763 h 52 c 18,0 35,2 53,2 V 648 h -105 c 0,-34 -2,-68 3,-102 h -140 c 3,18 4,36 4,55 v 47 h -60 v 117 c 12,-1 24,-3 37,-3 7,0 15,1 23,1 v 2 h -2 v 217 c 0,108 16,212 148,212 37,0 75,-6 108,-24 z M 924,464 c 0,-47 -35,-91 -84,-91 -49,0 -85,43 -85,91 0,47 37,89 85,89 48,0 84,-43 84,-89 z m 612,-48 v 960 c 0,159 -129,288 -288,288 H 288 C 129,1664 0,1535 0,1376 V 416 C 0,257 129,128 288,128 h 960 c 159,0 288,129 288,288 z"
         id="path304" /></symbol></defs><g
     id="layer1"
     transform="translate(283.81648,-17.746321)"><rect
       style="fill:#1d1d1d;fill-opacity:1;stroke:none;stroke-width:0;stroke-dasharray:none;stroke-opacity:1"
       id="rect27"
       width="3215.6816"
       height="1934.7147"
       x="-740.91425"
       y="-100.43083"
       ry="16.943829" /><rect
       style="opacity:0.252531;fill:url(#radialGradient68);fill-opacity:1;stroke:none;stroke-width:7.516;stroke-dasharray:none;stroke-opacity:1;paint-order:markers stroke fill"
       id="rect67"
       width="360"
       height="640"
       x="-606.61615"
       y="0"
       ry="0" /><path
       id="path70"
       style="fill:url(#radialGradient71);fill-opacity:1;stroke:none;stroke-width:1px;stroke-linecap:butt;stroke-linejoin:miter;stroke-opacity:1"
       d="m -606.61523,0 v 122.64142 h 17.63867 l 17.29297,-29.359378 9.60156,11.999998 21.60351,-11.999998 34.05274,34.785158 52.04492,-12.38672 118.04102,-10.39844 89.72461,12.1543 V 0 Z" /><use
       xlink:href="#fork-awesome-symbols.svg:git-square"
       width="10000"
       height="10000"
       style="fill:#f9f9f9;stroke:#000000"
       id="use1-85"
       transform="matrix(0.01561483,0,0,0.01561483,-283.80863,15.755429)" /></g></svg>
