<?xml version="1.0" encoding="UTF-8" standalone="no"?>
<!-- Created with Inkscape (http://www.inkscape.org/) -->

<svg
   width="27.09009"
   height="27.089966"
   viewBox="0 0 27.090088 27.089966"
   version="1.1"
   id="svg1"
   xml:space="preserve"
   xmlns:xlink="http://www.w3.org/1999/xlink"
   xmlns="http://www.w3.org/2000/svg"
   xmlns:svg="http://www.w3.org/2000/svg"><defs
     id="defs1"><symbol
       viewBox="0 0 24 24"
       id="material-design-action.svg:ic_zoom_in_24px"><title
         id="title1-25">material-design-action.svg:ic_zoom_in_24px_inkscape_duplicate</title><path
         d="M 15.5,14 H 14.71 L 14.43,13.73 A 6.47,6.47 0 0 0 16,9.5 6.5,6.5 0 1 0 9.5,16 c 1.61,0 3.09,-0.59 4.23,-1.57 L 14,14.71 v 0.79 l 5,4.99 1.49,-1.49 z m -6,0 C 7.01,14 5,11.99 5,9.5 5,7.01 7.01,5 9.5,5 11.99,5 14,7.01 14,9.5 14,11.99 11.99,14 9.5,14 Z M 12,10 h -2 v 2 H 9 V 10 H 7 V 9 H 9 V 7 h 1 v 2 h 2 z"
         id="path216" /></symbol><filter
       style="color-interpolation-filters:sRGB"
       id="filter24-18"
       x="-0.27444254"
       y="-0.27444254"
       width="1.5488851"
       height="1.5488851"><feFlood
         result="flood"
         in="SourceGraphic"
         flood-opacity="1.000000"
         flood-color="rgb(0,0,0)"
         id="feFlood23-7" /><feGaussianBlur
         result="blur"
         in="SourceGraphic"
         stdDeviation="2.000000"
         id="feGaussianBlur23-9" /><feOffset
         result="offset"
         in="blur"
         dx="0.000000"
         dy="0.000000"
         id="feOffset23-2" /><feComposite
         result="comp1"
         operator="in"
         in="flood"
         in2="offset"
         id="feComposite23-02" /><feComposite
         result="comp2"
         operator="over"
         in="SourceGraphic"
         in2="comp1"
         id="feComposite24-37" /></filter></defs><g
     id="layer1"
     transform="translate(-693.68962,479.70985)"><g
       id="g3"><use
         xlink:href="#material-design-action.svg:ic_zoom_in_24px"
         width="24"
         height="24"
         style="fill:#ffffff;stroke:none;filter:url(#filter24-18)"
         id="use1-7-36"
         transform="translate(695.48978,-477.90984)" /></g></g></svg>
