<svg xmlns="http://www.w3.org/2000/svg" viewBox="0 0 21.17 5.21" preserveAspectRatio="none">
  <path d="M-584.77 42.1c4.72-1.39 19.1-5.73 28.34-8.32a.24.66 39.65 0 0 .26-.15l.08-.07c3.82-3.15 7.58-5.5 11.32-8.93l.06-.06c3.66 3.09 7.85 6.11 11.48 9.1a.74.29 51.57 0 0 .27.16l.19.06c9.62 2.76 23.33 6.84 28 8.2-4.6-1.59-18.12-6.24-27.56-9.58-3.66-3.78-7.4-8.25-11.16-11.87a1.84 1.93 46.1 0 0-2.57 0c-.45.41-.89.81-1.3 1.22-3.67 3.5-6.27 7.1-9.66 10.71l-.07.07.25-.15c-9.04 3.23-23.28 8-27.93 9.6z" style="fill:#999;fill-rule:nonzero;stroke:none;stroke-width:1px;stroke-linecap:butt;stroke-linejoin:miter;stroke-opacity:1" transform="matrix(.2646 0 0 -.2372 154.72 9.99)"/>
</svg>
