<?xml version="1.0" encoding="UTF-8" standalone="no"?>
<!-- Created with Inkscape (http://www.inkscape.org/) -->

<svg
   width="4.8365588mm"
   height="4.8378587mm"
   viewBox="0 0 4.8365588 4.8378587"
   version="1.1"
   id="svg1"
   xmlns="http://www.w3.org/2000/svg"
   xmlns:svg="http://www.w3.org/2000/svg">
  <defs
     id="defs1" />
  <g
     id="layer1"
     transform="translate(-129.18544,-114.56459)">
    <path
       d="m 133.06623,116.74997 0.10688,-0.10688 -0.32065,-0.32064 -0.58737,-0.58737 -0.32064,-0.32065 -0.10688,0.10689 -0.21377,0.21376 -1.88413,1.88413 c -0.0984,0.0984 -0.17025,0.22038 -0.20998,0.35375 l -0.33483,1.1388 c -0.0237,0.0794 -0.002,0.16553 0.0577,0.22417 0.0596,0.0586 0.14471,0.0804 0.22417,0.0577 l 1.13785,-0.33483 c 0.13337,-0.0397 0.25538,-0.11161 0.35375,-0.20998 l 1.88413,-1.88413 z m -2.36747,1.59281 -0.0861,0.21471 c -0.0378,0.0293 -0.0804,0.0511 -0.1258,0.0653 l -0.73965,0.21754 0.21754,-0.73871 c 0.0133,-0.0463 0.036,-0.0889 0.0653,-0.1258 l 0.21471,-0.0861 v 0.30268 c 0,0.0832 0.0681,0.15133 0.15133,0.15133 h 0.30267 z m 1.91724,-3.60084 -0.1362,0.13714 -0.21376,0.21376 -0.10783,0.10689 0.32064,0.32064 0.58738,0.58737 0.32064,0.32064 0.10688,-0.10688 0.21376,-0.21376 0.13715,-0.13715 c 0.23646,-0.23646 0.23646,-0.61953 0,-0.85599 l -0.37172,-0.37266 c -0.23646,-0.23647 -0.61953,-0.23647 -0.85599,0 z m -0.44833,1.58902 -1.36203,1.36203 c -0.0586,0.0586 -0.15512,0.0586 -0.21376,0 -0.0586,-0.0587 -0.0586,-0.15512 0,-0.21377 l 1.36203,-1.36202 c 0.0586,-0.0586 0.15512,-0.0586 0.21376,0 0.0586,0.0586 0.0586,0.15512 0,0.21376 z"
       id="path1"
       style="fill:#ffffff;fill-opacity:0.5046;stroke-width:0.00945851" />
  </g>
</svg>
