<?xml version="1.0" encoding="UTF-8" standalone="no"?>
<!-- Created with Inkscape (http://www.inkscape.org/) -->

<svg
   width="3.7041342mm"
   height="4.2332931mm"
   viewBox="0 0 3.7041342 4.2332931"
   version="1.1"
   id="svg1"
   xmlns="http://www.w3.org/2000/svg"
   xmlns:svg="http://www.w3.org/2000/svg">
  <defs
     id="defs1" />
  <g
     id="layer1"
     transform="translate(-108.84796,-124.17166)">
    <g
       id="use1-44"
       style="fill:#f9f9f9;stroke:none"
       transform="matrix(0.00826815,0,0,0.00826815,108.84796,124.17166)">
      <title
         id="title3">Alternate Trash</title>
      <path
         d="M 0,84 V 56 C 0,42.7 10.7,32 24,32 h 112 l 9.4,-18.7 C 149.4,5.1 157.7,0 166.8,0 h 114.3 c 9.1,0 17.4,5.1 21.5,13.3 L 312,32 h 112 c 13.3,0 24,10.7 24,24 v 28 c 0,6.6 -5.4,12 -12,12 H 12 C 5.4,96 0,90.6 0,84 Z m 416,56 v 324 c 0,26.5 -21.5,48 -48,48 H 80 C 53.5,512 32,490.5 32,464 V 140 c 0,-6.6 5.4,-12 12,-12 h 360 c 6.6,0 12,5.4 12,12 z m -272,68 c 0,-8.8 -7.2,-16 -16,-16 -8.8,0 -16,7.2 -16,16 v 224 c 0,8.8 7.2,16 16,16 8.8,0 16,-7.2 16,-16 z m 96,0 c 0,-8.8 -7.2,-16 -16,-16 -8.8,0 -16,7.2 -16,16 v 224 c 0,8.8 7.2,16 16,16 8.8,0 16,-7.2 16,-16 z m 96,0 c 0,-8.8 -7.2,-16 -16,-16 -8.8,0 -16,7.2 -16,16 v 224 c 0,8.8 7.2,16 16,16 8.8,0 16,-7.2 16,-16 z"
         id="path3" />
    </g>
  </g>
</svg>
